<svg width="113" height="112" viewBox="0 0 113 112" fill="none" xmlns="http://www.w3.org/2000/svg">
  <path d="M69.1935 41.02L49.1735 61.0867L41.4735 53.3866C41.0552 52.8981 40.5403 52.5014 39.9614 52.2213C39.3824 51.9412 38.7518 51.7837 38.1091 51.7589C37.4664 51.7341 36.8255 51.8424 36.2267 52.077C35.6278 52.3116 35.0839 52.6675 34.6291 53.1223C34.1744 53.5771 33.8185 54.121 33.5839 54.7198C33.3493 55.3187 33.241 55.9595 33.2658 56.6022C33.2906 57.2449 33.448 57.8755 33.7281 58.4545C34.0082 59.0335 34.405 59.5483 34.8935 59.9667L45.8602 70.98C46.2962 71.4125 46.8134 71.7547 47.382 71.9869C47.9505 72.2192 48.5594 72.3369 49.1735 72.3333C50.3978 72.3282 51.571 71.8421 52.4402 70.98L75.7735 47.6466C76.2109 47.2128 76.5581 46.6967 76.795 46.128C77.0319 45.5593 77.1539 44.9494 77.1539 44.3333C77.1539 43.7173 77.0319 43.1073 76.795 42.5386C76.5581 41.9699 76.2109 41.4538 75.7735 41.02C74.8992 40.1508 73.7164 39.663 72.4835 39.663C71.2507 39.663 70.0679 40.1508 69.1935 41.02ZM56.5002 9.33331C47.2704 9.33331 38.2479 12.0703 30.5736 17.1981C22.8993 22.3259 16.9179 29.6142 13.3858 38.1414C9.85372 46.6686 8.92956 56.0518 10.7302 65.1042C12.5308 74.1566 16.9754 82.4718 23.5019 88.9983C30.0283 95.5247 38.3435 99.9693 47.396 101.77C56.4484 103.571 65.8315 102.646 74.3587 99.1144C82.886 95.5823 90.1743 89.6009 95.3021 81.9266C100.43 74.2523 103.167 65.2298 103.167 56C103.167 49.8716 101.96 43.8033 99.6146 38.1414C97.2693 32.4796 93.8319 27.3351 89.4985 23.0017C85.1651 18.6683 80.0206 15.2308 74.3587 12.8856C68.6969 10.5404 62.6285 9.33331 56.5002 9.33331ZM56.5002 93.3333C49.1163 93.3333 41.8983 91.1438 35.7589 87.0415C29.6195 82.9393 24.8344 77.1086 22.0087 70.2868C19.183 63.4651 18.4437 55.9586 19.8842 48.7166C21.3247 41.4747 24.8804 34.8225 30.1015 29.6013C35.3227 24.3802 41.9749 20.8245 49.2168 19.384C56.4588 17.9435 63.9653 18.6828 70.787 21.5085C77.6088 24.3342 83.4395 29.1193 87.5417 35.2587C91.6439 41.3981 93.8335 48.6161 93.8335 56C93.8335 65.9014 89.9002 75.3973 82.8988 82.3986C75.8975 89.4 66.4016 93.3333 56.5002 93.3333Z" fill="#29CF5F"/>
</svg>
